# xmcd
#
# Track frame offsets:
# 150
# 23845
# 36502
# 50567
# 67330
# 82895
# 95190
# 110542
# 124675
# 140852
# 152652
# 172880
#
# Disc length: 2544 seconds
#
#
# Revision: 0
# Processed by: cddbd v1.5.1PL0 Copyright (c) Steve Scherf et al.
# Submitted via: FreeRIP 2.70 
#
DISCID=ab09ee0c
DTITLE=José Luis Gazcón - Corridos con Arpa y Guitarra
DYEAR=1900
DGENRE=
TTITLE0=Valente Quintero
TTITLE1=La Refailita
TTITLE2=La tragedia de Bernal
TTITLE3=Macario Leyva
TTITLE4=Corrido de los Perez
TTITLE5=Corrido de Durango
TTITLE6=Valentín de la Sierra
TTITLE7=Ezequiel Rodríguez
TTITLE8=Los dos hermanos
TTITLE9=Luis Pulido
TTITLE10=Simón Blanco
TTITLE11=Corrido del Cerro de Ortega
EXTD=
EXTT0=
EXTT1=
EXTT2=
EXTT3=
EXTT4=
EXTT5=
EXTT6=
EXTT7=
EXTT8=
EXTT9=
EXTT10=
EXTT11=
PLAYORDER=
